<svg width="72" height="72" viewBox="0 0 72 72" fill="none" xmlns="http://www.w3.org/2000/svg">
<rect width="72" height="72" fill="#001E2B"/>
<path d="M23.9917 18.0115C24.1131 18.0346 24.2259 18.092 24.3159 18.1765C27.8501 20.8919 37.9444 20.2755 38.3882 26.1394C38.48 27.775 38.1983 29.4099 37.5649 30.9207C37.4142 31.3217 37.4388 31.2334 37.3452 30.8885C36.5011 28.6387 35.3202 27.5126 32.4214 25.7371C32.2728 25.6534 32.0965 25.6322 31.9321 25.6775C31.7679 25.7229 31.6281 25.8314 31.5435 25.9793C31.4588 26.1272 31.4358 26.3029 31.48 26.4676C31.5242 26.6322 31.6324 26.7725 31.7798 26.8582C37.3751 29.937 36.2616 32.8652 36.4312 37.8474C36.409 38.1712 36.4489 38.5098 36.4429 38.8064H38.6997C39.393 38.8428 40.0442 39.1522 40.5103 39.6668C40.9179 40.1171 41.1557 40.6924 41.187 41.2937V41.6824C41.1722 41.9821 41.0554 42.2691 40.854 42.4949C40.6238 42.753 40.3016 42.9107 39.9565 42.9334H30.9761C30.8066 42.9369 30.6455 43.0067 30.5269 43.1277C30.4083 43.2488 30.3414 43.4114 30.3413 43.5808C30.3413 43.7504 30.4082 43.9138 30.5269 44.0349C30.6455 44.1559 30.8067 44.2258 30.9761 44.2293H39.9565C40.5807 44.2121 41.1777 43.9693 41.6372 43.5467C42.0967 43.124 42.3883 42.549 42.4575 41.9285L47.1479 35.5213C47.4659 35.1499 47.886 34.8797 48.356 34.7449C48.8259 34.6102 49.3251 34.6171 49.7915 34.7635C50.0556 34.7962 50.305 34.9021 50.5122 35.0691C50.7194 35.2362 50.8764 35.4575 50.9644 35.7088C51.0233 35.9067 51.031 36.1164 50.9868 36.3181C50.9426 36.5199 50.8477 36.707 50.7114 36.8621L42.7554 47.3904C41.9449 48.3652 40.8275 49.037 39.5864 49.2957L30.3862 50.4295C29.5152 50.604 28.6858 50.9447 27.9438 51.4334L23.48 53.9998L20.0005 46.3416L22.5981 42.1228C23.1855 41.1271 24.0195 40.2994 25.019 39.7185C26.0186 39.1376 27.1511 38.8238 28.3071 38.8064H35.1284C35.1402 36.9863 35.1445 34.253 34.9937 32.3523C27.1065 33.2151 22.619 27.6324 23.2202 18.6101C23.2279 18.487 23.2708 18.3683 23.3433 18.2683C23.4158 18.1684 23.5156 18.0912 23.6304 18.0457C23.7451 18.0002 23.8704 17.9884 23.9917 18.0115ZM44.7896 22.5096C44.9113 22.4856 45.0375 22.497 45.1528 22.5428C45.2681 22.5885 45.3677 22.6665 45.4399 22.7674C45.5122 22.8683 45.5539 22.9881 45.5601 23.1121C45.9678 28.6577 43.2403 32.5241 38.395 32.2869C39.123 30.5428 39.8787 28.7117 39.6772 26.0017C39.6216 25.4641 39.5002 24.9353 39.3149 24.4275C39.9045 24.2462 40.5201 24.0778 41.1226 23.9158C42.5285 23.5335 43.9859 23.1375 44.4653 22.6775C44.5548 22.5915 44.6678 22.5335 44.7896 22.5096Z" fill="#00ED64"/>
</svg>
