<svg width="136" height="40" viewBox="0 0 136 40" fill="none" xmlns="http://www.w3.org/2000/svg">
<rect width="136" height="40" fill="white"/>
<path fill-rule="evenodd" clip-rule="evenodd" d="M31.1809 23.6741H34.4445C35.7178 23.6741 36.202 24.1113 36.202 25.182C36.202 26.213 35.7176 26.6497 34.4445 26.6497H31.1809V23.6741ZM26.125 34.5039H31.1811V30.1001H36.5968C40.1824 30.1001 41.4736 27.9987 41.4736 25.2817C41.4736 22.1278 40.1456 20.3431 36.5603 20.3431H26.125V34.5039ZM43.1405 20.3431H56.7489V23.7933H48.1968V25.6974H56.1401V29.1491H48.1968V31.0529H56.7489V34.5039H43.1405V20.3431ZM63.9214 23.6741H67.1848C68.4579 23.6741 68.9421 24.1113 68.9421 25.182C68.9421 26.213 68.4579 26.6497 67.1848 26.6497H63.9214V23.6741ZM58.8651 34.5039H63.9214V30.1001H69.3359C72.9228 30.1001 74.214 27.9987 74.214 25.2817C74.214 22.1278 72.886 20.3431 69.2998 20.3431H58.8651V34.5039ZM79.1075 28.4943C76.6336 28.0772 75.6123 26.4906 75.6123 24.5078C75.6123 20.838 78.8577 19.8472 83.0166 19.8472C88.7178 19.8472 91.0671 21.4928 91.2465 24.4881H85.3652C85.3652 23.9127 85.0605 23.555 84.595 23.3569C84.1464 23.1393 83.5731 23.0601 83.0166 23.0601C81.5104 23.0601 80.9914 23.476 80.9914 24.0716C80.9914 24.4676 81.1521 24.7264 81.6537 24.8053L87.6958 25.7966C90.2426 26.213 91.8205 27.522 91.8205 29.9213C91.8205 33.3735 89.2743 34.9997 83.5905 34.9997C79.6995 34.9997 75.4503 34.4049 75.4322 30.2398H81.5285C81.5459 30.7152 81.708 31.0324 82.0669 31.2508C82.442 31.4494 82.9985 31.5488 83.7874 31.5488C85.3646 31.5488 85.7958 31.0724 85.7958 30.3979C85.7958 29.9815 85.5621 29.5653 84.8823 29.4468L79.1075 28.4943ZM93.4693 20.3431H98.5249V34.5039H93.4693V20.3431ZM117.263 28.9902C116.94 30.8546 116.366 32.362 115.111 33.3929C113.874 34.4244 111.937 34.9997 108.854 34.9997C105.788 34.9997 100.104 34.7612 100.104 27.4239C100.104 20.085 105.788 19.847 108.854 19.847C111.901 19.847 116.599 20.2829 117.263 25.8965H111.561C111.418 24.884 110.807 23.4166 108.854 23.4166C106.791 23.4166 105.482 24.547 105.482 27.4236C105.482 30.2995 106.755 31.4291 108.603 31.4291C110.198 31.4291 111.149 30.6954 111.561 28.99L117.263 28.9902ZM123.878 27.4241C123.878 24.5472 125.188 23.4171 127.25 23.4171C129.312 23.4171 130.622 24.5475 130.622 27.4241C130.622 30.2999 129.312 31.4296 127.25 31.4296C125.188 31.4294 123.878 30.2997 123.878 27.4241ZM118.499 27.4241C118.499 34.7612 124.183 35 127.25 35C130.316 35 136 34.7614 136 27.4241C136 20.0853 130.316 19.8472 127.25 19.8472C124.183 19.8472 118.499 20.085 118.499 27.4241ZM18.485 20.4834C18.8115 13.6895 12.9227 6.03855 4.89446 5.09288L4.90815 5C12.8227 5 18.8901 12.2899 18.8901 18.0409C18.8826 19.238 18.7875 19.9798 18.618 20.5183L18.485 20.4834ZM18.0055 21.347C17.4789 21.9872 16.8166 22.6317 16.0407 23.2436C14.6133 15.0758 8.58071 7.93363 4.31569 5.84901L4.22434 5.91234C8.51363 9.41467 13.6295 16.2169 15.619 23.564C14.6042 24.3057 13.508 24.9302 12.3515 25.4257C8.30394 20.8334 4.53048 11.9767 3.31445 6.35656L3.19075 6.39362C3.21819 11.849 7.11122 21.1102 11.8587 25.6292C10.7698 26.0579 9.63792 26.369 8.48225 26.5573C3.93144 24.7636 0.692134 19.0187 0.692134 13.1337C0.692134 9.29186 1.86943 6.91531 2.09719 6.42895L2.00022 6.39067C1.72469 6.80541 0 9.18074 0 13.3284C0 19.9805 3.29734 25.065 7.67501 26.6663C6.10952 26.8376 4.52674 26.7636 2.9843 26.4472L2.95176 26.5485C3.42 26.7201 5.0088 27.3837 7.43253 27.3837C12.9145 27.3837 16.6205 23.9948 18.1122 21.4189L18.0055 21.347Z" fill="#28458E"/>
</svg>
