<svg width="136" height="40" viewBox="0 0 136 40" fill="none" xmlns="http://www.w3.org/2000/svg">
<rect width="136" height="40" fill="white"/>
<path d="M90.9354 38.6214H88.3145V39.4388H96.1379V38.6214H94.0274V24.9336C93.3796 25.6131 92.3391 25.6721 91.2985 25.6721H88.7071V26.4599H90.9255V38.6313" fill="#14487E"/>
<path d="M41.4324 38.6214H38.8115V39.4388H46.6349V38.6214H44.5245V24.9336C43.8766 25.6131 42.8361 25.6721 41.7956 25.6721H39.2042V26.4599H41.403V38.6313" fill="#14487E"/>
<path d="M99.9659 38.6216H97.4627V39.439H105.394V38.6216H103.117V26.4798H108.712V38.6216H106.602V39.439H114.337V38.6216H111.863V24.9338C111.215 25.6133 110.067 25.6724 109.016 25.6724H103.107V21.1032C103.107 18.0505 104.236 15.5985 107.721 15.5985C109.095 15.5985 110.116 16.1598 110.116 16.7605C110.116 17.1544 109.782 17.2726 109.497 17.44C108.997 17.6763 108.683 18.1884 108.683 18.7398C108.683 19.6162 109.527 20.1775 110.233 20.1775C111.303 20.1775 112.059 19.3307 112.059 18.0899C112.059 16.6226 110.567 14.791 107.416 14.791C101.929 14.791 99.956 19.2519 99.956 23.4862V25.692H97.1094V26.4798H99.956V38.6512" fill="#14487E"/>
<path d="M17.0099 29.3847C20.4161 30.0937 21.9376 32.1518 21.9376 34.3773C21.9376 36.9475 19.886 39.0351 16.7645 39.0351C13.643 39.0351 10.4626 36.4059 9.98161 31.1277H9.10798V39.626H9.98161C10.0405 39.0647 10.2957 38.6412 10.9632 38.6412C12.2295 38.6412 13.5841 39.9706 16.8431 39.9706C21.5744 39.9706 24.156 37.0952 24.156 32.7131C24.156 29.2665 22.4382 26.7259 17.913 25.6033L16.1657 25.2094C12.1706 24.2739 10.9927 22.4423 10.9927 20.5516C10.9927 17.9815 12.9951 16.2286 15.3805 16.2286C19.1498 16.2286 21.3781 19.2813 21.8198 23.0922H22.7523V16.0317H21.9082C21.8198 16.4847 21.594 16.9081 20.9266 16.9081C19.7683 16.9081 18.8161 15.2734 15.3019 15.2734C11.7878 15.2734 9 17.8731 9 21.6841C9 25.8101 11.0516 27.947 15.3314 28.9711L17.0197 29.3946" fill="#14487E"/>
<path d="M80.294 36.8393C80.294 39.1239 81.8744 39.9708 83.9555 39.9708C86.4586 39.9708 87.2733 38.5922 87.6659 37.7453L87.0181 37.2923C86.6254 38.0013 85.9776 38.8482 84.8782 38.8482C84.034 38.8482 83.3567 38.4248 83.3567 37.1249V26.4504H86.9886V25.6626H83.3567V21.4873H82.7383C82.2082 24.7665 80.6867 25.6626 77.6143 25.6626V26.4504H80.2352V36.8393" fill="#14487E"/>
<path d="M70.3898 38.621H72.7261V28.429C72.7261 26.7943 71.8524 26.1444 70.7039 26.1444C68.6524 26.1444 67.1309 28.0942 66.4241 29.0789V38.6506H68.8192V39.4679H60.8584V38.6506H63.3026V26.5088H60.8584V25.721H63.4498C65.0302 25.721 65.7566 25.721 66.3456 24.9824V27.72H66.4045C67.0818 26.9027 68.6818 24.9824 71.4401 24.9824C74.3948 24.9824 75.8279 26.9027 75.8279 29.2168V38.6703H78.2721V39.4876H70.3604V38.6112" fill="#14487E"/>
<path d="M37.0445 34.8899C36.7107 36.6723 35.2678 38.8683 32.853 38.8683C30.4383 38.8683 29.3389 37.4601 29.3389 34.3483V31.1873C29.3389 28.1346 30.4677 25.9387 33.0297 25.9387C34.5512 25.9387 35.4248 26.6969 35.4248 27.2681C35.4248 27.5832 35.1991 27.7801 35.0322 28.0066C34.7671 28.2725 34.6199 28.627 34.6101 28.9914C34.6101 29.7004 35.1402 30.37 36.1316 30.37C37.0347 30.37 37.7905 29.6314 37.7905 28.5088C37.7905 26.8446 35.8175 25.0918 32.7843 25.0918C28.9266 25.0918 25.9229 28.0559 25.9229 32.5463C25.9229 36.6428 28.0333 40.0007 32.5389 40.0007C35.5819 40.0007 37.5451 37.5192 37.9377 34.8604H37.0641" fill="#14487E"/>
<path d="M125.487 34.8597C125.153 36.642 123.71 38.838 121.295 38.838C118.881 38.838 117.781 37.4298 117.781 34.318V31.1275C117.781 28.0748 118.91 25.8789 121.472 25.8789C122.994 25.8789 123.867 26.6371 123.867 27.2082C123.867 27.5234 123.641 27.7203 123.475 27.9468C123.219 28.2225 123.072 28.5869 123.082 28.9611C123.082 29.6701 123.612 30.3397 124.603 30.3397C125.506 30.3397 126.262 29.6012 126.262 28.4786C126.262 26.8144 124.289 25.0615 121.227 25.0615C117.369 25.0615 114.365 28.0256 114.365 32.516C114.365 36.6125 116.476 39.9704 120.952 39.9704C123.995 39.9704 125.958 37.4889 126.351 34.8301H125.506" fill="#14487E"/>
<path d="M58.8853 34.8309C58.5221 36.8398 57.0595 38.8683 54.7527 38.8683C52.4459 38.8683 51.2386 37.4602 51.2386 34.5749V31.3253H59.7393C59.9356 31.3253 60.024 31.2169 60.024 31.0101V30.4981C60.024 28.4104 58.1687 25.082 54.0067 25.082C50.4042 25.082 47.7637 28.6369 47.7637 32.5365C47.7637 37.1943 50.4631 39.9909 54.1539 39.9909C57.0497 39.9909 59.219 37.9328 59.7491 34.8211H58.8853V34.8309ZM56.9123 30.2421C56.9123 30.3799 56.8534 30.4685 56.6865 30.4685H51.3367V29.4543C51.3367 27.278 52.4656 25.9289 54.1539 25.9289C55.8423 25.9289 56.8828 27.1697 56.8828 29.4543V30.2421" fill="#14487E"/>
<path d="M29.673 0.758247H30.4877C33.6387 0.758247 35.3271 2.54062 35.3271 4.76613C35.3271 7.92713 33.1872 9.03003 30.5957 9.03003H29.6632V0.758247H29.673ZM26.4632 19.3599H24.3232V20.1182H33.0203C35.9749 20.1182 39.4597 18.4244 39.4597 14.4756C39.4597 11.3442 36.6424 9.65042 33.9136 9.48301V9.34515C36.2498 9.1482 38.586 7.6514 38.586 4.54948C38.586 1.871 36.3087 0 32.1467 0H24.3232V0.738552H26.4926V19.3698H26.4632V19.3599ZM29.673 9.74889H31.1945C34.3749 9.74889 36.1222 11.8365 36.1222 14.4658C36.1222 17.3215 34.4044 19.3501 31.4792 19.3501H29.6828V9.75874" fill="#14487E"/>
<path d="M40.7842 14.1117C40.7842 17.6666 43.2873 20.6307 46.8309 20.6307C50.3745 20.6307 52.8776 17.6371 52.8776 14.1117C52.8776 10.5864 50.3745 7.59277 46.8309 7.59277C43.2873 7.59277 40.7842 10.5273 40.7842 14.1117ZM49.8444 14.8503C49.8444 17.3318 49.5598 19.7937 46.8309 19.7937C44.102 19.7937 43.8174 17.3417 43.8174 14.8503V13.3535C43.8174 10.8719 44.0431 8.4101 46.8309 8.4101C49.6187 8.4101 49.8444 10.8621 49.8444 13.3535V14.8503Z" fill="#14487E"/>
<path d="M71.8818 14.1117C71.8818 17.6666 74.3849 20.6307 77.9286 20.6307C81.4722 20.6307 83.9753 17.6371 83.9753 14.1117C83.9753 10.5864 81.4722 7.59277 77.9286 7.59277C74.3849 7.59277 71.8818 10.5273 71.8818 14.1117ZM80.9421 14.8503C80.9421 17.3318 80.628 19.7937 77.9286 19.7937C75.2291 19.7937 74.915 17.3417 74.915 14.8503V13.383C74.915 10.9015 75.1408 8.43965 77.9286 8.43965C80.7163 8.43965 80.9421 10.8916 80.9421 13.383V14.8503Z" fill="#14487E"/>
<path d="M92.6528 19.3894H94.3706V10.8418C94.3706 9.40413 93.4381 8.81328 92.4565 8.81328C91.1608 8.81328 89.8356 10.0541 89.2172 11.3834V19.3992H91.3276V20.1574H84.0146V19.3992H86.3214V8.83298H84.103V8.07473H86.2724C87.5975 8.07473 88.6675 8.07473 89.1681 7.4248V9.76848H89.227C90.3558 8.38985 91.897 7.4248 93.6737 7.4248C96.432 7.4248 97.3842 9.40413 97.3842 11.0388V19.3401H99.0136V20.0984H92.6528V19.3894Z" fill="#14487E"/>
<path d="M58.6892 15.214C60.3481 15.4405 61.0549 16.4252 61.0549 17.4986C61.0549 18.9954 59.8475 19.8127 58.4929 19.8127C55.9014 19.8127 55.0081 17.5281 54.8315 16.0018H54.1836L54.2719 20.4331H54.9198C54.9787 19.9801 55.1161 19.7832 55.4008 19.7832C55.9898 19.7832 56.726 20.6005 58.5223 20.6005C61.2217 20.6005 62.8512 18.9067 62.8512 16.3661C62.8512 14.5345 61.8107 12.89 59.5039 12.5552L58.1297 12.3287C56.3333 12.0136 55.6855 11.3932 55.6855 10.3198C55.6855 9.24648 56.5885 8.37007 58.11 8.37007C59.8867 8.37007 60.9272 9.50251 61.2021 11.2258H61.8205L61.7616 7.72999H61.2021C61.1727 7.98602 61.0647 8.26175 60.78 8.26175C60.2696 8.26175 59.5726 7.55273 58.0511 7.55273C55.9112 7.55273 54.2523 9.04953 54.2523 11.1667C54.2523 13.8452 55.9996 14.8398 57.8254 15.086L58.699 15.1943" fill="#14487E"/>
<path d="M71.5481 18.2663C71.2634 18.7488 70.645 19.4775 69.7517 19.4775C68.9959 19.4775 68.3186 19.1427 68.3186 17.9217V8.83254H71.5579V8.07429H68.3186V3.94824H67.759C67.2781 6.82367 65.678 8.07429 63.3418 8.07429V8.83254H65.3934V17.8921C65.3934 19.8714 66.7971 20.6297 68.7701 20.6297C70.5664 20.6297 71.5284 19.6942 72.0094 18.9359L71.5579 18.2565" fill="#14487E"/>
</svg>
