<svg width="136" height="40" viewBox="0 0 136 40" fill="none" xmlns="http://www.w3.org/2000/svg">
<rect width="136" height="40" fill="white"/>
<path d="M5.51051 31.2324C3.35185 31.2324 1.89269 30.8645 1.13596 30.1286C0.379355 29.3938 0 28.0115 0 25.9785V21.366L5.21646 20.3755V27.0543H15.3718V9H20.557V25.9785C20.557 28.0115 20.1736 29.3938 19.4085 30.1286C18.6426 30.8645 17.1843 31.2324 15.035 31.2324H5.51051Z" fill="#0D4D84"/>
<path d="M25.9854 31.2324L38.552 9H43.5345L56.2696 31.2324H50.47L46.5664 23.9789L33.7815 26.3434L33.0747 27.6217L31.1343 31.2324H25.9854ZM35.9256 22.3575H45.6569L40.8645 13.3122L35.9256 22.3575Z" fill="#0D4D84"/>
<path d="M63.4229 31.2324V9H82.4572C84.2147 9 85.4867 9.34508 86.2742 10.0331C87.0628 10.7212 87.456 11.8165 87.456 13.3194V16.0207C87.456 17.0849 87.1272 17.9341 86.4696 18.5702C85.812 19.2073 84.8688 19.6022 83.639 19.7561C84.9156 19.9245 85.902 20.3807 86.5971 21.1249C87.291 21.8701 87.6385 22.8376 87.6385 24.0319V26.8786C87.6385 28.3514 87.0956 29.4448 86.0132 30.1599C84.9285 30.8749 83.2809 31.2324 81.0717 31.2324H63.4229ZM80.2948 12.6282H68.5162V17.9049H80.2948C81.1899 17.9049 81.8101 17.7865 82.1529 17.5485C82.4958 17.3126 82.6666 16.901 82.6666 16.3138V14.2206C82.6666 13.6489 82.4958 13.2394 82.1529 12.9952C81.8101 12.751 81.1899 12.6282 80.2948 12.6282ZM80.2948 21.5645H68.5162V27.2372H80.2948C81.2847 27.2372 81.9528 27.0906 82.3004 26.7955C82.6467 26.4992 82.8199 25.9785 82.8199 25.2344V23.5476C82.8199 22.8014 82.6467 22.2848 82.3004 21.998C81.9528 21.7089 81.2847 21.5645 80.2948 21.5645Z" fill="#0D4D84"/>
<path d="M102.795 31.2324H97.6104V9H102.795V31.2324Z" fill="#0D4D84"/>
<path d="M114.134 31.2324V9H119.319V27.0543H136V31.2324H114.134Z" fill="#0D4D84"/>
<path d="M37.6484 19.1943L33.0742 27.6223L65.5369 19.2067L37.6484 19.1943Z" fill="#00875D"/>
</svg>
