<svg width="136" height="42" viewBox="0 0 136 42" fill="none" xmlns="http://www.w3.org/2000/svg">
<rect y="1" width="136" height="40" fill="white"/>
<path d="M58 22C58 27.7574 53.5101 32 48 32C42.4899 32 38 27.7574 38 22C38 16.202 42.4899 12 48 12C53.5101 12 58 16.202 58 22ZM53.6225 22C53.6225 18.4021 51.0202 15.9405 48 15.9405C44.9798 15.9405 42.3775 18.4021 42.3775 22C42.3775 25.5617 44.9798 28.0595 48 28.0595C51.0202 28.0595 53.6225 25.5573 53.6225 22Z" fill="#EA4335"/>
<path d="M80 22C80 27.7574 75.5105 32 70.0001 32C64.4898 32 60 27.7574 60 22C60 16.2065 64.4898 12 70.0001 12C75.5105 12 80 16.202 80 22ZM75.6225 22C75.6225 18.4021 73.0199 15.9405 70.0001 15.9405C66.9794 15.9405 64.3775 18.4021 64.3775 22C64.3775 25.5617 66.9794 28.0595 70.0001 28.0595C73.0199 28.0595 75.6225 25.5573 75.6225 22Z" fill="#FBBC05"/>
<path d="M101 12.605V30.5838C101 37.9794 96.6838 41 91.5809 41C86.7766 41 83.8855 37.7537 82.7953 35.0989L86.5845 33.505C87.259 35.135 88.9124 37.0584 91.5761 37.0584C94.843 37.0584 96.8665 35.0221 96.8665 31.1888V29.7486H96.7152C95.741 30.9631 93.8641 32.0241 91.4952 32.0241C86.5398 32.0241 82 27.6627 82 22.0505C82 16.3977 86.5398 12 91.4952 12C93.8593 12 95.7363 13.0611 96.7152 14.2395H96.8665V12.6096H101V12.605ZM97.1756 22.0505C97.1756 18.5242 94.8468 15.9462 91.8843 15.9462C88.8819 15.9462 86.3657 18.5242 86.3657 22.0505C86.3657 25.5406 88.8819 28.0825 91.8843 28.0825C94.8468 28.0825 97.1756 25.5406 97.1756 22.0505Z" fill="#4285F4"/>
<path d="M108 2V31H104V2H108Z" fill="#34A853"/>
<path d="M125.293 25.2957L128.804 27.5681C127.671 29.1957 124.94 32 120.222 32C114.37 32 110 27.6086 110 22C110 16.0532 114.407 12 119.716 12C125.062 12 127.676 16.1298 128.53 18.3616L129 19.4977L115.23 25.0343C116.284 27.0405 117.923 28.064 120.222 28.064C122.526 28.064 124.123 26.9639 125.293 25.2957ZM114.486 21.6979L123.691 17.9873C123.185 16.7385 121.661 15.8683 119.869 15.8683C117.57 15.8683 114.37 17.8386 114.486 21.6979Z" fill="#EA4335"/>
<path d="M21.1351 19.4254V15.1903H35.7829C35.9261 15.9285 36 16.8016 36 17.7467C36 20.924 35.1084 24.8531 32.2353 27.6524C29.4406 30.4878 25.8698 32 21.1397 32C12.3724 32 5 25.0421 5 16.5C5 7.95787 12.3724 1 21.1397 1C25.99 1 29.4452 2.85427 32.0413 5.27101L28.9741 8.25947C27.1125 6.55824 24.5903 5.23506 21.1351 5.23506C14.7329 5.23506 9.72551 10.2622 9.72551 16.5C9.72551 22.7378 14.7329 27.7649 21.1351 27.7649C25.2879 27.7649 27.653 26.1403 29.168 24.6641C30.3968 23.4669 31.2052 21.7567 31.5239 19.4209L21.1351 19.4254Z" fill="#4285F4"/>
</svg>
