<svg width="136" height="40" viewBox="0 0 136 40" fill="none" xmlns="http://www.w3.org/2000/svg">
<rect width="136" height="40" fill="white"/>
<path d="M23.8789 24.6178V14.6299H25.8239L29.2671 19.9918L32.7498 14.6299H34.6422V24.6178H32.8286V17.3896L29.254 22.9225L25.6925 17.4028V24.6178H23.8789Z" fill="#002C77"/>
<path d="M38.8272 24.8538C38.0386 24.8538 37.4056 24.6371 36.9282 24.2034C36.4505 23.7697 36.2119 23.1937 36.2119 22.4752C36.2119 21.9584 36.3388 21.5093 36.593 21.1281C36.847 20.7469 37.2062 20.4493 37.6707 20.2345C38.1349 20.0199 38.6781 19.9125 39.3003 19.9125C40.0274 19.9125 40.6934 20.0396 41.2979 20.2936V20.2673C41.2979 19.6279 41.129 19.1417 40.7919 18.8086C40.4546 18.4757 39.9354 18.3091 39.2346 18.3091C38.8226 18.3091 38.4001 18.3749 37.9664 18.5063C37.5327 18.6377 37.1274 18.8305 36.7507 19.0845V17.5206C37.1098 17.3192 37.5173 17.1484 37.9729 17.0081C38.4284 16.868 38.9103 16.7979 39.4186 16.7979C40.5399 16.7979 41.403 17.087 42.0075 17.6652C42.6121 18.2434 42.9143 19.0714 42.9143 20.149V24.6173H41.3768L41.3504 23.5135C41.1402 23.9253 40.8071 24.2516 40.3517 24.4925C39.896 24.7334 39.3878 24.8538 38.8272 24.8538ZM37.8678 22.3701C37.8678 22.7468 37.9904 23.0382 38.2358 23.244C38.4809 23.45 38.8226 23.5528 39.2608 23.5528C39.8828 23.5528 40.3648 23.3755 40.7065 23.0206C41.0482 22.6657 41.2408 22.1511 41.2848 21.4763C40.7854 21.2486 40.2157 21.1346 39.5763 21.1346C39.0154 21.1346 38.5906 21.2421 38.3015 21.4566C38.0124 21.6714 37.8678 21.9757 37.8678 22.3701Z" fill="#002C77"/>
<path d="M44.7939 24.6182V17.0352H46.4893L46.5024 18.6123C46.7038 18.0955 47.0104 17.6838 47.4224 17.3769C47.834 17.0704 48.2984 16.917 48.8154 16.917C48.9555 16.917 49.122 16.9301 49.3149 16.9564C49.5074 16.9827 49.6609 17.0178 49.7748 17.0616V18.7569C49.6345 18.7132 49.4505 18.6737 49.2228 18.6386C48.9949 18.6037 48.7847 18.586 48.592 18.586C47.9349 18.586 47.4332 18.7985 47.0872 19.2234C46.741 19.6485 46.5682 20.2639 46.5682 21.0698V24.6182H44.7939Z" fill="#002C77"/>
<path d="M53.3443 24.8538C53.0727 24.8538 52.777 24.821 52.4573 24.7553C52.1373 24.6896 51.8307 24.5998 51.5373 24.4859C51.2437 24.3722 50.9874 24.2451 50.7686 24.1049V22.5541C51.5482 23.106 52.3804 23.382 53.2655 23.382C53.7823 23.382 54.1592 23.3185 54.3957 23.1915C54.6323 23.0645 54.7506 22.8651 54.7506 22.5934C54.7506 22.3569 54.6432 22.1643 54.4285 22.0152C54.2138 21.8664 53.7998 21.6955 53.1866 21.5026C52.3279 21.2312 51.7213 20.9158 51.3665 20.5564C51.0117 20.1973 50.8342 19.711 50.8342 19.0977C50.8342 18.388 51.0925 17.8274 51.6096 17.4155C52.1264 17.0038 52.8318 16.7979 53.7255 16.7979C54.0672 16.7979 54.4569 16.857 54.8951 16.9752C55.3331 17.0936 55.7142 17.2447 56.0384 17.4286V18.9794C55.7579 18.7691 55.4011 18.5962 54.9674 18.4603C54.5337 18.3246 54.1328 18.2566 53.7649 18.2566C52.9413 18.2566 52.5296 18.5063 52.5296 19.0057C52.5296 19.1548 52.5667 19.2796 52.6413 19.3802C52.7156 19.4811 52.8536 19.5796 53.0552 19.6759C53.2566 19.7724 53.5458 19.8819 53.9226 20.0045C54.5709 20.2147 55.0812 20.4361 55.4536 20.6682C55.826 20.9004 56.0933 21.1655 56.2554 21.4633C56.4175 21.7612 56.4986 22.1249 56.4986 22.5541C56.4986 23.2551 56.2114 23.8136 55.6376 24.2296C55.0637 24.6457 54.2992 24.8538 53.3443 24.8538Z" fill="#002C77"/>
<path d="M58.0361 24.6178V14.6299H59.8103V18.1256C60.0292 17.7051 60.3446 17.3788 60.7566 17.1465C61.1683 16.9145 61.6414 16.7983 62.1759 16.7983C63.0519 16.7983 63.7266 17.0765 64.1998 17.6328C64.6729 18.1893 64.9095 18.9887 64.9095 20.0312V24.6178H63.1352V20.3598C63.1352 19.0369 62.627 18.3753 61.6108 18.3753C61.05 18.3753 60.6098 18.5615 60.29 18.9339C59.9701 19.3064 59.8103 19.8298 59.8103 20.5044V24.6178H58.0361Z" fill="#002C77"/>
<path d="M67.0254 24.6178V14.6299H68.9704L72.4136 19.9918L75.8963 14.6299H77.7887V24.6178H75.9751V17.3896L72.4005 22.9225L68.839 17.4028V24.6178H67.0254Z" fill="#002C77"/>
<path d="M83.38 24.8538C82.5651 24.8538 81.8555 24.6917 81.2509 24.3676C80.6464 24.0436 80.1798 23.5814 79.8513 22.9811C79.5228 22.3811 79.3584 21.678 79.3584 20.8719C79.3584 20.057 79.5271 19.3453 79.8645 18.7363C80.2016 18.1274 80.6704 17.652 81.2706 17.3104C81.8706 16.9687 82.5651 16.7979 83.3537 16.7979C83.7479 16.7979 84.1114 16.8461 84.4444 16.9424C84.7773 17.0389 85.0928 17.1527 85.3907 17.2841V18.9268C85.1015 18.7517 84.7882 18.618 84.4511 18.526C84.1137 18.434 83.7917 18.388 83.485 18.388C82.7754 18.388 82.208 18.6049 81.7832 19.0385C81.3581 19.4722 81.1458 20.0615 81.1458 20.8061C81.1458 21.586 81.3581 22.1927 81.7832 22.6263C82.208 23.06 82.7972 23.2768 83.5507 23.2768C83.8574 23.2768 84.1508 23.2397 84.4313 23.1651C84.7116 23.0907 85.0313 22.9746 85.3907 22.8169V24.3808C85.1101 24.521 84.8014 24.6348 84.4641 24.7225C84.1267 24.8099 83.7653 24.8538 83.38 24.8538Z" fill="#002C77"/>
<path d="M87.2832 24.6178V14.6299H89.1231V22.975H93.7228V24.6178H87.2832Z" fill="#002C77"/>
<path d="M98.8079 24.8538C97.9843 24.8538 97.2527 24.7006 96.6132 24.3939C95.9736 24.0873 95.4698 23.6362 95.1019 23.0403C94.7339 22.4446 94.5498 21.713 94.5498 20.8456C94.5498 20.0484 94.7142 19.3474 95.0427 18.7428C95.3712 18.1383 95.8246 17.6631 96.4029 17.3169C96.9811 16.9709 97.6426 16.7979 98.3874 16.7979C99.0971 16.7979 99.7168 16.9535 100.247 17.2643C100.777 17.5755 101.187 18.0114 101.476 18.572C101.765 19.1328 101.909 19.7899 101.909 20.5432C101.909 20.6484 101.905 20.7515 101.896 20.8521C101.887 20.953 101.874 21.1041 101.857 21.3056H96.2845C96.3897 21.9364 96.67 22.4292 97.1257 22.7841C97.5812 23.1388 98.1945 23.3163 98.9656 23.3163C99.9468 23.3163 100.849 23.0097 101.673 22.3964V23.9602C101.279 24.2319 100.83 24.4488 100.326 24.6108C99.8218 24.7728 99.3159 24.8538 98.8079 24.8538ZM98.3085 18.1646C97.7476 18.1646 97.292 18.3377 96.9417 18.6837C96.5912 19.0299 96.3721 19.5139 96.2845 20.1359H100.227C100.227 20.0222 100.218 19.9213 100.201 19.8337C100.113 19.2905 99.9073 18.8765 99.5833 18.5917C99.2591 18.3071 98.8341 18.1646 98.3085 18.1646Z" fill="#002C77"/>
<path d="M103.5 24.6173V17.0344H105.208L105.222 18.2434C105.432 17.788 105.749 17.4332 106.174 17.1789C106.599 16.9249 107.088 16.7979 107.64 16.7979C108.516 16.7979 109.19 17.076 109.664 17.6324C110.137 18.1888 110.373 18.9882 110.373 20.0308V24.6173H108.599V20.3593C108.599 19.0365 108.091 18.3749 107.075 18.3749C106.514 18.3749 106.073 18.5611 105.754 18.9334C105.434 19.3059 105.274 19.8293 105.274 20.5039V24.6173H103.5Z" fill="#002C77"/>
<path d="M112.252 24.6173V17.0344H113.96L113.973 18.2434C114.184 17.788 114.501 17.4332 114.926 17.1789C115.351 16.9249 115.84 16.7979 116.392 16.7979C117.268 16.7979 117.942 17.076 118.416 17.6324C118.889 18.1888 119.125 18.9882 119.125 20.0308V24.6173H117.351V20.3593C117.351 19.0365 116.843 18.3749 115.826 18.3749C115.266 18.3749 114.825 18.5611 114.506 18.9334C114.186 19.3059 114.026 19.8293 114.026 20.5039V24.6173H112.252Z" fill="#002C77"/>
<path d="M123.16 24.8538C122.372 24.8538 121.739 24.6371 121.261 24.2034C120.784 23.7697 120.545 23.1937 120.545 22.4752C120.545 21.9584 120.672 21.5093 120.926 21.1281C121.18 20.7469 121.539 20.4493 122.004 20.2345C122.468 20.0199 123.011 19.9125 123.633 19.9125C124.361 19.9125 125.026 20.0396 125.631 20.2936V20.2673C125.631 19.6279 125.462 19.1417 125.125 18.8086C124.788 18.4757 124.269 18.3091 123.568 18.3091C123.156 18.3091 122.733 18.3749 122.299 18.5063C121.866 18.6377 121.46 18.8305 121.084 19.0845V17.5206C121.443 17.3192 121.85 17.1484 122.306 17.0081C122.761 16.868 123.243 16.7979 123.752 16.7979C124.873 16.7979 125.736 17.087 126.341 17.6652C126.945 18.2434 127.247 19.0714 127.247 20.149V24.6173H125.71L125.684 23.5135C125.473 23.9253 125.14 24.2516 124.685 24.4925C124.229 24.7334 123.721 24.8538 123.16 24.8538ZM122.201 22.3701C122.201 22.7468 122.323 23.0382 122.569 23.244C122.814 23.45 123.156 23.5528 123.594 23.5528C124.216 23.5528 124.698 23.3755 125.039 23.0206C125.381 22.6657 125.574 22.1511 125.618 21.4763C125.118 21.2486 124.549 21.1346 123.909 21.1346C123.349 21.1346 122.924 21.2421 122.635 21.4566C122.345 21.6714 122.201 21.9757 122.201 22.3701Z" fill="#002C77"/>
<path d="M129.126 24.6173V17.0344H130.834L130.848 18.2434C131.058 17.788 131.375 17.4332 131.8 17.1789C132.225 16.9249 132.714 16.7979 133.266 16.7979C134.142 16.7979 134.816 17.076 135.29 17.6324C135.763 18.1888 135.999 18.9882 135.999 20.0308V24.6173H134.225V20.3593C134.225 19.0365 133.717 18.3749 132.701 18.3749C132.14 18.3749 131.699 18.5611 131.38 18.9334C131.06 19.3059 130.9 19.8293 130.9 20.5039V24.6173H129.126Z" fill="#002C77"/>
<path d="M18.3736 16.4221L14.38 14.1215C14.0987 13.9595 13.6385 13.9595 13.3572 14.1215L2.33979 20.4683L8.43656 15.7973L5.52755 14.1215C5.24629 13.9595 4.78605 13.9595 4.50479 14.1215L0.511178 16.4221C0.22992 16.5841 -0.000199963 16.9823 1.30389e-07 17.3065V21.9058C-0.000199948 22.2307 0.22992 22.6288 0.511178 22.7909L4.50479 25.0915C4.78605 25.2535 5.24629 25.2535 5.52755 25.0915L16.545 18.7447L10.4482 23.4157L13.3572 25.0915C13.6385 25.2535 14.0987 25.2535 14.38 25.0915L18.3736 22.7909C18.6548 22.6288 18.8849 22.2307 18.8849 21.9061V17.3069C18.8849 16.9823 18.6548 16.5841 18.3736 16.4221Z" fill="#002C77"/>
</svg>
