<svg width="136" height="40" viewBox="0 0 136 40" fill="none" xmlns="http://www.w3.org/2000/svg">
<rect width="136" height="40" fill="white"/>
<path d="M4.72135 19.8231C6.37694 19.8231 7.17404 19.2036 7.17404 17.4071C7.17404 15.7965 6.56089 14.9292 4.96661 14.9292C4.78267 14.9292 4.23083 14.9292 4.16951 15.177V19.7611H4.78267L4.72135 19.8231ZM16.6781 21.3098L15.2678 17.2832L13.7349 21.3098H16.8007H16.6781ZM30.413 14.8672C29.7998 14.9912 29.4933 15.4868 29.1867 16.0443L26.3661 21.0001V22.9204C26.3661 24.4072 26.3661 25.2125 27.9603 25.1505V25.7701H16.3102V25.1505C16.8007 25.0886 17.7205 25.1505 17.7205 24.3452C17.668 23.9614 17.5649 23.5864 17.4139 23.2302L17.046 22.1771H13.367L13.1217 22.7346C12.9377 23.1682 12.6925 23.7258 12.6925 24.1594C12.6925 25.0267 13.4897 25.0886 14.1028 25.1505V25.7701H8.52297L6.07036 22.2391C5.57977 21.4337 4.84398 20.5664 4.41478 20.5664H4.1082V22.9204C4.1082 24.3452 4.1082 25.2125 5.70247 25.1505V25.7701H0V25.1505C1.5942 25.1505 1.5942 24.3452 1.5942 22.9204V17.0354C1.5942 15.5487 1.5942 14.7434 0 14.8053V14.1859H5.51845C6.31562 14.1859 7.54193 14.2478 8.33903 14.6195C9.38139 15.0531 9.9333 15.9823 9.9333 17.2213C9.9333 18.77 8.70692 19.7611 7.35798 20.0089L9.62673 22.9824L10.6691 24.4692C10.853 24.593 11.0983 24.7789 11.3436 24.4692C11.8341 23.8497 12.1407 22.9824 12.3859 22.301L15.697 14H16.4941L19.9278 22.9824C20.1118 23.478 20.4797 24.3452 20.7863 24.717C21.1542 24.9027 21.5221 25.0886 21.89 25.0886H22.2579C23.8521 25.0886 23.7908 24.3452 23.7908 22.8585V21.3717L20.909 15.9823C20.4797 15.177 20.357 14.9912 19.4986 14.7434V14.1239L22.0126 14.2478L24.8945 14.1859V14.8053C24.4652 14.8053 23.6681 14.8673 23.6681 15.5487C23.6681 15.9204 24.036 16.6638 24.22 16.9735L25.8756 20.1948L27.5311 17.3451C27.715 16.9116 28.1442 16.1062 28.1442 15.6726C28.1442 14.8673 27.5311 14.8053 26.9179 14.8053V14.1859H34.1533L37.3418 22.3629L40.4076 14.1859H44.3932V14.8053C42.8602 14.7434 42.8602 15.6106 42.8602 17.0354V22.5488C42.8602 23.1063 42.8602 23.6638 42.9828 24.2214C43.1668 24.9648 43.78 25.0267 44.4545 25.1505V25.7701H38.752V25.1505C39.3652 25.0267 40.0397 24.9648 40.2237 24.2214L40.3463 22.5488V16.9735L36.9739 25.7701H36.1155L32.6204 16.8496V22.2391C32.6204 22.8585 32.6204 23.9116 32.8044 24.4072C33.1109 24.9648 33.6628 25.0267 34.1533 25.1505V25.7701H30.1677V25.1505C30.7809 25.0267 31.394 24.9648 31.6393 24.2214L31.7619 22.5488V15.5487C31.6196 15.3073 31.4098 15.1137 31.1588 14.9925C30.9079 14.8712 30.627 14.8277 30.3517 14.8672H30.413ZM44.6997 20.0089C44.6997 16.2921 47.5203 14 50.8927 14C54.2651 14 57.147 16.2921 57.147 20.0089C57.147 23.7258 54.2651 25.9559 50.8313 25.9559C47.459 25.9559 44.6997 23.6638 44.6997 20.0089ZM47.5816 19.885C47.5816 22.1151 48.1948 25.1505 50.8927 25.1505C53.5906 25.1505 54.2651 22.5488 54.2651 20.0709C54.2651 17.7788 53.6519 14.8053 50.8927 14.8053C48.1948 14.8053 47.5816 17.6549 47.5816 19.885ZM69.4714 14.8053C67.9385 14.8053 68 15.4248 68 17.5929V26.0179H67.1416L59.5383 16.9735V22.3629C59.5383 23.7258 59.5383 25.0267 61.1939 25.1505V25.7701H57.2083V25.1505C58.6186 24.9648 58.6799 24.2833 58.6799 23.0443V15.9823C58.1893 15.239 57.9441 14.9292 57.0243 14.8053V14.1859L58.6186 14.2478L60.5194 14.1859L67.1416 22.1771V17.4691C67.1416 16.1682 67.1416 14.8673 65.5473 14.8053V14.1859H75.0513C76.6456 14.1859 78.1785 14.4956 79.4663 15.6726C80.8155 16.9116 81.3672 18.4603 81.3672 20.2567C81.3987 21.0368 81.2673 21.8149 80.9822 22.5406C80.6972 23.2662 80.2638 23.9232 79.7114 24.4692C78.5465 25.5842 76.9522 25.832 75.4193 25.7701H69.9624V25.1505C71.556 25.1505 71.5567 24.4072 71.5567 22.9204V17.0354C71.5567 15.6106 71.556 14.8053 69.9624 14.8053H69.4714ZM73.7635 21.8673C73.7635 22.4249 73.7635 23.6638 73.9479 24.0974C74.1315 24.717 74.6832 24.9648 75.2964 24.9648C77.8719 24.9648 78.117 22.2391 78.117 20.1328C78.1762 18.8841 77.9664 17.6373 77.5039 16.4779C76.8907 15.3009 75.6644 14.9912 74.4381 14.9912C74.3766 14.9912 73.9479 14.9912 73.8249 15.115C73.7635 15.3009 73.7028 15.4248 73.7635 15.5487V21.8673ZM87.5602 21.6195C87.4918 21.6493 87.4296 21.6912 87.3758 21.7435C87.0692 21.9913 86.8241 22.8585 87.0085 23.7877C87.07 24.2868 87.3228 24.7415 87.7123 25.0543C88.1019 25.3671 88.5975 25.5128 89.0931 25.4603C90.7481 25.2125 90.503 23.9116 90.503 20.1328V17.0354C90.503 15.6106 90.4415 14.7434 88.7865 14.8053V14.1859H94.7344V14.8053C93.3851 14.8053 93.14 15.0531 93.14 17.0354V21.2479C93.14 24.1594 92.4039 25.7081 89.7677 26.2037C87.8668 26.5134 85.2297 26.0798 84.4944 24.0355C84.1878 23.0444 84.31 21.9913 84.31 21.5576L86.7626 21.062L87.4372 20.9382L87.5602 21.6195ZM99.5167 21.3098L98.0452 17.2832L96.4509 21.3098H99.5167ZM128.213 22.1151H128.826C129.317 23.6638 130.052 25.1505 131.953 25.1505C132.934 25.1505 133.854 24.5311 133.854 23.416C133.854 21.7435 132.26 21.3098 131.095 20.8142C129.562 20.1328 128.336 19.2656 128.336 17.2832C128.336 15.177 129.93 14 131.892 14C132.751 14 133.731 14.1859 134.344 14.8672L134.59 14.1859H135.325L135.448 17.2832H134.712C134.406 15.9823 133.486 14.8053 131.953 14.8053C131.156 14.8053 130.297 15.3009 130.297 16.2301C130.297 17.531 131.585 17.9027 132.566 18.3363C134.344 19.1416 136 20.0089 136 22.3629C136 24.6549 134.161 25.9559 132.076 25.9559C131.033 25.9559 129.93 25.5842 129.194 24.717L128.949 25.7701H112.271V25.1505C112.884 25.0267 113.497 24.9648 113.681 24.2214C113.804 23.6019 113.804 23.1063 113.804 22.5488V16.9735L110.431 25.7701H109.695L106.2 16.8496V22.2391C106.2 22.8585 106.2 23.9116 106.384 24.4072C106.629 24.9648 107.243 25.0267 107.733 25.1505V25.7701H99.1486V25.1505C99.7003 25.0267 100.559 25.0886 100.559 24.3452C100.512 23.9403 100.409 23.544 100.253 23.1682L99.8847 22.1771H96.2058L96.0214 22.6727C95.8377 23.1063 95.5926 23.6638 95.5926 24.1594C95.5926 25.0267 96.328 25.0886 97.0026 25.0886V25.7081H93.14V25.0886C93.7532 25.0267 94.1819 24.4692 94.55 23.8497L95.1631 22.3629L98.474 14H99.2716L102.705 23.0443C102.889 23.478 103.196 24.3452 103.564 24.717L103.932 24.9648H104.36C104.728 24.8408 104.974 24.593 104.974 24.2214L105.158 22.5488V15.5487C104.851 14.9292 104.177 14.8053 103.564 14.7434V14.1239L105.403 14.2478L107.488 14.1239L110.799 22.301L113.804 14.1239H127.293L127.416 17.2213H126.68C126.373 15.4868 125.453 14.9292 123.798 14.9292C123.614 14.9292 122.571 14.9292 122.449 15.115V19.3894C123.737 19.3894 124.595 19.1416 124.718 17.531H125.331V22.1151H124.718C124.35 20.5045 123.921 20.2567 122.388 20.2567V22.2391C122.388 23.9116 122.388 24.9648 124.35 24.9648H125.147C126.986 24.9027 127.6 24.3452 128.029 22.3629L128.151 22.1151H128.213ZM119.935 17.0354C119.935 15.8584 119.935 15.177 119.199 14.8672C118.958 14.8168 118.71 14.7959 118.464 14.8053H117.728L117.114 14.8672C116.318 15.115 116.318 15.9204 116.318 17.0354V22.9204C116.318 24.0355 116.318 24.7789 117.053 25.0267L117.789 25.0886H119.138C119.935 24.7789 119.935 24.0355 119.935 22.9204V17.0354Z" fill="#002949"/>
</svg>
