<svg width="136" height="40" viewBox="0 0 136 40" fill="none" xmlns="http://www.w3.org/2000/svg">
<rect width="136" height="40" fill="white"/>
<path d="M5.61833 21.1656L4.3401 18.16L3.06187 21.1656H5.61833ZM6.12366 22.3912H2.52674L1.48635 24.7549H0L3.86449 16.1751H4.78599C5.49945 17.8973 8.65048 24.7549 8.65048 24.7549H7.16413L6.12366 22.3912ZM105.589 21.1656L104.312 18.16L103.034 21.1656H105.589ZM106.094 22.3912H102.498L101.457 24.7555H99.971L103.836 16.1757H104.757C105.471 17.8979 108.621 24.7555 108.621 24.7555H107.135L106.094 22.3912ZM30.0834 17.3721H26.5757V19.4445H29.9943V20.6696H26.5757V23.5299H30.0834V24.7549H25.2677V16.1751H30.0834V17.3721ZM35.791 20.1145H36.2072C37.4557 20.1145 38.0793 19.6482 38.0793 18.715C38.0793 17.8396 37.4848 17.4019 36.266 17.4019H35.7904L35.791 20.1145ZM37.426 21.0781L40.1311 24.7258H38.5259L36.0288 21.224H35.791V24.7258H34.483V16.1465H36.0288C37.1881 16.1465 38.0211 16.3519 38.5259 16.7897C39.0906 17.256 39.3879 17.8973 39.3879 18.6555C39.3879 19.2701 39.2095 19.7941 38.8529 20.2318C38.4961 20.6981 38.0204 20.9614 37.426 21.0781ZM44.1442 16.1751H45.4521V24.7549H44.1442V16.1751ZM56.3322 16.6425V18.1886C55.5593 17.5764 54.7864 17.2548 53.954 17.2548C53.0622 17.2548 52.2893 17.5764 51.6948 18.2166C51.0705 18.8597 50.7733 19.6179 50.7733 20.5231C50.7733 21.4271 51.0705 22.1875 51.6948 22.7992C52.3191 23.4108 53.0622 23.733 53.9837 23.733C54.4593 23.733 54.8458 23.6466 55.1728 23.5007C55.3511 23.4131 55.5302 23.3239 55.7376 23.2089C55.9457 23.0916 56.124 22.917 56.3619 22.7403V24.2868C55.6366 24.69 54.8172 24.9014 53.9837 24.9002C52.7352 24.9002 51.6657 24.4625 50.7738 23.6157C49.882 22.7403 49.4659 21.7189 49.4659 20.4933C49.4659 19.4136 49.8226 18.4221 50.5658 17.5752C51.457 16.5253 52.6461 16 54.0729 16C54.8458 16.0006 55.589 16.2049 56.3322 16.6425ZM96.5822 17.3721H93.0747V19.4445H96.4635V20.6696H93.0747V23.5299H96.5822V24.7549H91.7663V16.1751H96.5822V17.3721ZM115.697 20.2902H119.294V20.582C119.294 21.224 119.205 21.8076 119.057 22.3032C118.908 22.7706 118.641 23.1786 118.284 23.5865C117.48 24.4917 116.439 24.9295 115.192 24.9295C113.973 24.9295 112.933 24.4917 112.041 23.6163C111.179 22.7408 110.733 21.6897 110.733 20.4939C110.733 19.2391 111.179 18.188 112.071 17.3423C112.963 16.4669 114.033 16.0292 115.311 16.0292C115.994 16.0292 116.619 16.1751 117.214 16.4371C117.777 16.7003 118.342 17.1666 118.878 17.7801L117.926 18.6555C117.214 17.7217 116.352 17.256 115.311 17.256C114.39 17.256 113.615 17.5764 112.992 18.1897C112.369 18.802 112.041 19.5624 112.041 20.4944C112.041 21.4575 112.398 22.2453 113.082 22.8587C113.736 23.4423 114.449 23.7044 115.192 23.7044C115.846 23.7044 116.411 23.5001 116.946 23.0624C117.451 22.6247 117.748 22.0995 117.808 21.5158H115.637V20.2902H115.697ZM124.615 16.1751V23.5299H127.171V24.7549H123.306V16.1751H124.615ZM131.184 16.1751V24.7549H136V23.5299H132.492V20.6696H135.881V19.4445H132.492V17.3721H136V16.1751H131.184ZM65.3691 21.1656L64.0908 18.16L62.8132 21.1656H65.3691ZM65.8744 22.3912H62.2775L61.237 24.7549H59.7508L63.6152 16.1751H64.5367C65.2502 17.8973 68.4009 24.7549 68.4009 24.7549H66.9149L65.8744 22.3912ZM13.9715 19.5607L16.3199 24.7549H16.6767L19.0845 19.5607L19.9169 24.7549H21.2843L19.7385 16.1173H19.3521L16.5281 22.187L13.7932 16.1173H13.4068L11.6826 24.7549H13.05L13.9715 19.5607ZM79.7864 24.7549V16.1751H78.4789V22.1286L72.3252 16.1173H71.82V24.7549H73.1275V18.715L79.2812 24.7549H79.7864Z" fill="#333333"/>
</svg>
