<svg width="136" height="40" viewBox="0 0 136 40" fill="none" xmlns="http://www.w3.org/2000/svg">
<rect width="136" height="40" fill="white"/>
<path d="M15.1274 2L11.5768 12.6297H0L9.34578 19.2036L5.83603 29.8863L15.1274 23.3123L24.4595 29.8863L20.909 19.2036L30.2003 12.6297H18.678L15.1274 2Z" fill="#E22130"/>
<path d="M62.6655 11.6906C61.9582 11.0015 61.1964 10.4978 60.2305 10.2062C59.3191 9.86156 58.2444 9.71582 57.0881 9.71582C55.9181 9.71582 54.857 9.91459 53.7823 10.3653C52.7212 10.8158 51.8506 11.452 51.1432 12.1413L51.0887 12.1943C50.735 12.5919 50.4222 12.9895 50.1773 13.4269C49.9733 13.8245 49.7692 14.1691 49.674 14.4607C49.5787 14.2619 49.4155 13.9173 49.2114 13.5726C48.8577 12.9232 48.5449 12.4328 48.3 12.234C47.5926 11.4388 46.7764 10.8954 45.7153 10.458C44.6542 10.0074 43.5387 9.80854 42.26 9.80854C41.4437 9.80854 40.2738 9.90136 39.0087 10.4978C37.5394 11.187 36.3151 12.2738 35.4581 13.8642V10.3122H34.2881V30.1401H35.4581V18.861C35.4581 17.5753 35.6077 16.4886 35.9205 15.4945C36.2198 14.5004 36.6824 13.7582 37.2945 13.016C37.7979 12.3268 38.5597 11.7834 39.4304 11.4388C40.2874 11.0412 41.2124 10.8424 42.1647 10.8954C43.3347 10.9484 44.3413 11.1472 45.2664 11.5448C46.1234 11.9425 46.8444 12.5389 47.443 13.228C47.9463 13.9173 48.3 14.5137 48.504 15.2029C48.8033 16.0379 48.9122 17.0319 48.9122 18.4236V30.1004H50.0821V18.9272C50.0821 17.5489 50.1365 16.4091 50.3814 15.468C50.6399 14.5799 50.9936 13.8908 51.7009 12.9895C52.3132 12.1943 53.0749 11.6509 54.136 11.2533C54.9931 10.9617 55.9589 10.7628 56.8704 10.7628C57.8906 10.7628 58.7477 10.9086 59.5639 11.2135C60.3802 11.5183 60.9787 11.9557 61.5501 12.4991C62.2575 13.1883 62.7744 14.0365 63.0737 15.1234C63.4274 16.2102 63.5771 17.4428 63.5771 18.9802V30.1004H64.747L64.951 18.9272C64.951 17.2971 64.747 15.8656 64.3388 14.6727C63.9851 13.4799 63.4682 12.4329 62.6655 11.6906Z" fill="#231F20"/>
<path d="M85.7513 15.3487C85.1392 13.9703 83.9698 12.5787 82.4459 11.5846C80.6644 10.3918 78.5413 9.80859 76.3104 9.80859C72.257 9.80859 69.7674 11.5846 68.3384 13.122C66.6112 15.0041 65.6045 17.5754 65.6045 20.1997C65.6045 22.824 66.6248 25.3952 68.3384 27.2772C69.7125 28.7618 72.243 30.5908 76.3104 30.5908C78.3925 30.5908 80.2689 30.1003 81.9426 29.1593C83.5204 28.1652 84.7857 26.8797 85.7513 25.1566V30.1533H86.9217V10.3652H85.7513V15.3487ZM85.0982 16.4886C85.303 17.032 85.5067 17.5754 85.6025 18.1188C85.7513 18.7153 85.8063 19.3514 85.8063 19.8949C85.8602 20.5443 85.8063 21.1275 85.7104 21.6709C85.6155 22.3203 85.4527 22.8637 85.248 23.3541C84.5819 25.1832 83.4255 26.7604 81.8477 27.8074C80.3238 28.8943 78.3925 29.4377 76.4192 29.4377C73.4813 29.4377 71.0457 28.4038 69.2641 26.5218C67.7403 24.8386 66.7745 22.5191 66.7745 20.0936C66.7745 17.4693 67.7948 15.1499 69.5088 13.4136C71.2913 11.7304 73.672 10.7496 76.3104 10.7496C78.2427 10.7496 80.1201 11.293 81.643 12.234C83.2218 13.3739 84.4322 14.8053 85.0982 16.4886Z" fill="#231F20"/>
<path d="M91.4025 13.3211C92.464 12.3801 93.5385 11.7837 94.5991 11.3463C95.6606 10.9487 96.83 10.6968 98.259 10.6968H98.3539C100.081 10.6968 101.85 11.1873 103.333 12.0355C105.061 13.1224 106.38 14.6068 107.088 16.4888L107.142 16.5816H108.462L108.366 16.3828C107.55 14.1561 106.026 12.3271 103.999 11.1475C102.326 10.1535 100.299 9.66309 98.3129 9.66309C95.375 9.66309 92.6817 10.7499 90.6955 12.6849C88.7092 14.62 87.5938 17.284 87.5938 20.1469C87.5938 22.8109 88.6543 25.3822 90.3819 27.2642C92.3682 29.3849 95.1573 30.5248 98.5037 30.5248C100.681 30.5248 102.816 29.8753 104.543 28.6957C106.271 27.516 107.591 25.8727 108.353 23.8978L108.448 23.699H107.129L107.074 23.7917C106.571 25.2231 105.496 26.6148 104.081 27.5956C102.462 28.8282 100.381 29.4247 98.245 29.4247C96.9798 29.4247 95.7555 29.1729 94.5861 28.7354C93.4157 28.2451 92.45 27.5956 91.5383 26.8004C90.6276 25.9123 89.9605 24.9183 89.4572 23.7387C88.9539 22.5989 88.6952 21.3133 88.6952 20.0276C88.6952 18.742 88.9948 17.4033 89.4572 16.2237C89.8786 15.1104 90.5866 14.1164 91.4025 13.3211ZM105.102 13.2283C106.013 14.0634 106.774 15.1634 107.278 16.4491C106.774 15.2032 106.013 14.1694 105.102 13.2283Z" fill="#231F20"/>
<path d="M124.886 10.2598H123.567L123.512 10.3525C123.512 10.4453 121.527 14.9517 119.554 19.4977L115.65 28.4441L111.949 19.4977C109.568 13.56 108.195 10.3923 108.195 10.3525L108.14 10.2598H106.821L114.942 29.9949L111.283 38.0002H112.602L112.657 37.9074C112.657 37.9074 112.752 37.6556 112.916 37.258C113.528 35.8796 115.201 32.0625 117.133 27.7682C117.636 26.6283 118.153 25.4487 118.711 24.2559L123.485 13.5202C124.302 11.6912 124.805 10.4983 124.805 10.4585L124.886 10.2598Z" fill="#231F20"/>
<path d="M134.028 20.4906C132.912 19.6955 131.539 19.2978 130.165 19.0062L130.015 18.9532C128.437 18.5025 127.43 18.0652 126.763 17.5748C126.001 16.9253 125.594 16.1434 125.539 14.9505C125.539 14.4071 125.594 13.8637 125.798 13.4131C125.947 12.9226 126.26 12.5251 126.613 12.1274C127.022 11.6768 127.525 11.3852 128.028 11.1334C128.641 10.8816 129.253 10.7888 129.906 10.7888H130.001C130.613 10.7888 131.171 10.8816 131.62 11.0804C132.123 11.2791 132.586 11.5707 132.94 11.9153C133.293 12.26 133.606 12.7106 133.797 13.201C134 13.6914 134.096 14.2348 134.096 14.8312V14.977H135.265V14.8577C135.265 13.4263 134.708 12.1407 133.797 11.1997C132.831 10.2586 131.511 9.82129 129.892 9.82129C128.478 9.82129 127.104 10.2719 126.083 11.0539C124.913 11.9949 124.356 13.3335 124.356 14.9638C124.409 16.5012 124.968 17.6278 125.974 18.4761C127.036 19.3111 128.464 19.7617 129.879 20.1063C131.607 20.5039 132.817 21.0474 133.579 21.7365C134.395 22.5318 134.748 23.4728 134.803 24.7981V24.944C134.803 25.5934 134.708 26.2296 134.45 26.72C134.191 27.2634 133.891 27.7538 133.429 28.1514C133.021 28.602 132.463 28.9467 131.905 29.1852C131.293 29.437 130.64 29.5298 129.974 29.5298C128.505 29.5298 127.185 29.0792 126.274 28.2442C125.362 27.3562 124.9 26.1634 124.859 24.7319V24.5861L123.688 24.6392V24.891C123.688 24.944 123.688 24.9838 123.688 25.0367C123.688 25.7259 123.838 26.3754 124.097 27.0116C124.356 27.661 124.709 28.2442 125.212 28.6949C125.825 29.2913 126.532 29.7816 127.348 30.0732C128.164 30.3648 129.021 30.5636 129.988 30.5636C130.845 30.5636 131.66 30.3648 132.422 30.0732C133.184 29.7286 133.837 29.278 134.409 28.7346C134.912 28.1912 135.374 27.5417 135.633 26.8525C135.933 26.1634 136.041 25.4211 135.986 24.6258C135.905 22.7173 135.239 21.3919 134.028 20.4906Z" fill="#231F20"/>
<path d="M124.222 8.77376L125.595 7.83274L126.969 8.77376L126.412 7.19663L127.827 6.20258H126.153L125.595 4.66504L125.092 6.20258H123.419L124.738 7.19663L124.222 8.77376Z" fill="#231F20"/>
</svg>
