<svg width="136" height="40" viewBox="0 0 136 40" fill="none" xmlns="http://www.w3.org/2000/svg">
<rect width="136" height="40" fill="white"/>
<mask id="mask0_200_434" style="mask-type:luminance" maskUnits="userSpaceOnUse" x="28" y="0" width="80" height="40">
<path d="M107.333 0H28V40H107.333V0Z" fill="white"/>
</mask>
<g mask="url(#mask0_200_434)">
<path d="M104.394 11.4947C104.394 11.7813 104.173 12.0005 103.89 12.0005C103.602 12.0005 103.384 11.7813 103.384 11.4947C103.384 11.2063 103.602 10.989 103.89 10.989C104.173 10.989 104.394 11.2063 104.394 11.4947ZM104.49 11.4947C104.49 11.1501 104.227 10.8916 103.89 10.8916C103.546 10.8916 103.287 11.1501 103.287 11.4947C103.287 11.8375 103.546 12.0979 103.89 12.0979C104.227 12.0979 104.49 11.8375 104.49 11.4947ZM104.162 11.3523C104.162 11.2156 104.065 11.1538 103.948 11.1538H103.66V11.8131H103.772V11.5584H103.897L104.026 11.8131H104.158L104.026 11.5471C104.108 11.5209 104.162 11.4573 104.162 11.3523ZM104.05 11.3561C104.05 11.4198 104.005 11.4497 103.944 11.4497H103.772V11.2606H103.944C104.005 11.2606 104.05 11.2943 104.05 11.3561Z" fill="#FF6600"/>
<path d="M107.334 34.5625H102.27V39.6478H107.334V34.5625Z" fill="#FF6600"/>
<path d="M91.9939 11.9199L95.0106 34.6483L98.0226 11.9199H102.723L98.3266 39.6476H91.6433L87.2939 11.9199H91.9939Z" fill="#FF6600"/>
<path d="M30.6065 11.9203H28V15.6047H30.6065V39.6474H35.1871V15.6047H38.4056V11.9203H35.1871V6.28427C35.1871 5.46193 35.3569 4.8326 35.7524 4.4018C36.1498 3.97473 36.7562 3.7724 37.579 3.7724H38.4037V0H36.7469C34.7113 0 32.7503 0.432734 31.8174 1.3224C30.8845 2.21213 30.6065 3.5926 30.6065 5.55933V11.9203Z" fill="#FF6600"/>
<path d="M39.8359 39.6465H44.4278V11.9189H39.8359V39.6465Z" fill="#FF6600"/>
<path d="M65.6276 27.3533H75.1996V18.8083C75.1883 13.6966 72.7402 11.6006 68.1016 11.6006C63.2789 11.6006 61.0176 13.691 61.0176 18.842V32.8845C61.0322 37.5689 63.8569 39.9929 68.1003 39.9929C72.3409 39.9929 75.1883 37.9982 75.1996 32.8845V30.6631H70.7643L70.7703 33.2947C70.7703 35.1715 70.0703 36.4695 68.1936 36.4695C66.3122 36.4695 65.6276 35.1602 65.6276 33.2929V27.3533ZM65.6276 17.8886C65.6276 16.3245 66.0329 14.7043 68.1802 14.7043C70.3256 14.7043 70.7609 16.3002 70.7609 17.8867V23.6165H65.6276V17.8886Z" fill="#FF6600"/>
<path d="M54.7519 23.8844C51.2686 20.8482 50.9979 20.408 50.9979 18.1453C50.9979 16.2179 51.1639 15.0454 52.8899 15.0454C54.6139 15.0454 54.8379 16.2029 54.8379 18.1678V20.7283H59.2633V16.5513C59.2486 13.2716 56.7353 11.6045 52.7873 11.6045C48.9046 11.6045 46.3726 12.9026 46.3499 18.1453C46.3466 19.0369 46.3519 19.0369 46.3499 18.6922C46.3579 20.3406 46.3653 22.9536 50.4233 26.4487L51.5873 27.449C54.5786 29.9814 54.9046 30.2867 54.8919 33.2986C54.8899 35.1552 54.7759 36.5618 52.8359 36.5618C50.8953 36.5618 50.7739 35.1438 50.7739 34.2692V30.7212H46.1279V34.3812C46.1279 38.8858 49.0479 40.0005 52.8299 40.0005C56.6159 40.0005 59.5393 38.8745 59.5393 33.0794V32.5981C59.5299 28.5484 58.8006 27.462 54.7519 23.8844Z" fill="#FF6600"/>
<path d="M81.3458 14.7746V11.92H77.1611V39.6456H81.6765V20.3227C81.6745 18.8298 82.1598 17.8464 83.0031 17.2658C83.8018 16.7132 84.7845 16.526 86.0365 16.5072V11.6016C83.6411 11.6522 82.6071 12.126 81.3925 14.6734L81.3458 14.7746Z" fill="#FF6600"/>
</g>
</svg>
