<svg width="140" height="40" viewBox="0 0 140 40" fill="none" xmlns="http://www.w3.org/2000/svg">
<rect width="136" height="40" fill="white"/>
<path d="M64.4972 9.38184H70.9312V30.1453H66.1633V16.1825L60.0645 30.1453L53.6457 16.1649V30.1453H49.1973V9.38184H55.556L60.1403 20.1288L64.4972 9.38184Z" fill="#231F20"/>
<path d="M73.3008 9.38184V30.1453H85.2818V26.6252H77.9458V21.3428H84.9778V17.7895H77.9458V13.0258H85.2818V9.38184H73.3008Z" fill="#231F20"/>
<path d="M103.15 19.7681C103.15 27.4971 111.217 33.682 119.716 29.5452V25.0968C113.176 29.6783 107.483 25.0863 107.576 19.9456C107.64 16.5291 109.936 13.28 114.377 13.0266C116.561 12.9027 118.041 13.4455 119.716 15.0497V10.4238C113.575 6.78449 103.15 10.79 103.15 19.7681Z" fill="#231F20"/>
<path d="M121.676 30.1458H126.092V9.58203H121.676V30.1458Z" fill="#231F20"/>
<path d="M131.633 19.0111L138.307 9.62695H133.149L126.538 18.9935L134.213 30.1455H139.277L131.633 19.0111Z" fill="#231F20"/>
<path d="M87.3457 9.38184V30.1453H92.0067V18.9902L99.7107 30.1453H104.679L98.5797 21.4268C101.407 20.3579 102.324 17.9879 102.324 15.619C102.324 13.2519 100.337 9.38184 95.5227 9.38184H87.3457ZM92.0067 12.837H94.0407C97.4807 12.837 97.6637 15.0855 97.6637 15.9251C97.6637 17.5293 96.3027 18.8954 94.5457 18.8954H92.0067V12.837Z" fill="#231F20"/>
<path d="M9.99937 10.0002C9.99937 4.47688 14.4771 0 19.9995 0C25.5237 0 29.9998 4.47688 29.9998 10.0002H9.99937ZM9.99937 29.9998C9.99937 24.4774 14.4771 19.9995 19.9995 19.9995C14.4771 19.9995 9.99937 15.5235 9.99937 10.0002C4.47688 10.0002 0 14.4771 0 19.9995C0 25.5237 4.47688 29.9998 9.99937 29.9998ZM9.99937 29.9998C9.99937 35.524 14.4771 40 19.9995 40C25.5237 40 29.9998 35.524 29.9998 29.9998H9.99937ZM19.9995 19.9995C25.5237 19.9995 29.9998 24.4774 29.9998 29.9998C35.5231 29.9998 40.0009 25.5237 40.0009 19.9995C40.0009 14.4771 35.5231 10.0002 29.9998 10.0002C29.9998 15.5235 25.5237 19.9995 19.9995 19.9995Z" fill="#007A73"/>
</svg>
