<svg width="72" height="72" viewBox="0 0 72 72" fill="none" xmlns="http://www.w3.org/2000/svg">
<rect width="72" height="72" fill="#001E2B"/>
<path d="M28.7915 18.0001C28.2848 18.0001 27.8707 18.4116 27.8614 18.9264C27.8243 20.7602 27.7764 22.7052 28.1194 24.445L28.124 24.4716C28.4145 25.9518 28.9785 27.2396 29.5486 28.4241L42.646 28.6041C43.1281 27.8217 43.6132 26.9079 43.9052 25.6029C44.2467 24.0711 44.3116 22.0072 44.3749 20.0811C44.3858 19.7415 44.2173 19.4223 43.93 19.244C43.7801 19.1517 43.6117 19.1047 43.4417 19.1047C43.2872 19.1047 43.1327 19.1438 42.9921 19.2205C41.1627 20.2391 39.6486 21.0528 38.3801 21.0528C38.2874 21.0528 38.2117 21.0497 38.1237 21.0418L38.1144 21.0403C37.7575 21.0027 37.3898 20.8854 36.9927 20.696C36.5137 20.4707 36.0378 20.1656 35.5063 19.8245L35.4816 19.8073C34.9764 19.4834 34.4403 19.1375 33.8547 18.8606L33.8516 18.8575C32.1443 18.0501 30.3628 18.0282 28.8116 18L28.7915 18.0001ZM35.0446 37.0023L35.043 37.0038C34.7788 37.0648 34.5733 37.1462 34.4235 37.2495C34.2149 37.3903 34.082 37.5311 34.0187 37.6657C33.9584 37.7972 33.926 37.8957 33.926 37.9646V39.0036C33.926 39.0615 33.9692 39.1225 34.0526 39.1913C34.1423 39.2649 34.2442 39.329 34.3555 39.3869C34.5594 39.4949 34.7897 39.5997 35.0461 39.6983L35.0446 37.0023ZM36.9543 45.2139C37.2185 45.1529 37.424 45.07 37.5692 44.9683C37.7762 44.8259 37.9107 44.6866 37.974 44.5505C38.0389 44.4081 38.0744 44.3032 38.0744 44.236V43.2126C38.0744 43.1563 38.0281 43.0953 37.94 43.0249C37.8488 42.9529 37.7515 42.8872 37.6449 42.8293C37.444 42.7213 37.2138 42.6196 36.9558 42.5226L36.9543 45.2139ZM35.9994 33.0466H36.0009C36.5278 33.0466 36.9543 33.4801 36.9543 34.0121L36.9558 34.8727C37.6063 34.9697 38.1285 35.1402 38.5287 35.3828C38.9984 35.6675 39.3383 35.968 39.5546 36.2778C39.737 36.536 39.8745 36.7801 39.9594 37.0195C40.0429 37.2573 40.0969 37.4592 40.1186 37.6235C40.1417 37.794 40.1526 37.9051 40.1526 37.9567V38.373C40.1526 38.6625 40.0521 38.9097 39.8497 39.1147C39.6643 39.3024 39.448 39.4057 39.2008 39.4261C39.1715 39.4292 39.1406 39.4307 39.1097 39.4307C38.8238 39.4307 38.5781 39.329 38.3773 39.1241C38.1733 38.9144 38.0744 38.6625 38.0744 38.373V37.9818C38.0744 37.913 38.0451 37.8113 37.9817 37.6751C37.9153 37.5327 37.7809 37.3904 37.5785 37.2495C37.4286 37.1463 37.2216 37.0649 36.9558 37.0039V40.2992C37.5615 40.4901 38.127 40.706 38.6384 40.9814C39.0525 41.2036 39.3599 41.4618 39.5809 41.7215C39.8034 41.9844 39.9563 42.241 40.0351 42.4976C40.1139 42.7589 40.1526 42.9968 40.1526 43.2127V44.2611C40.1526 44.3127 40.1402 44.4207 40.1186 44.585C40.0954 44.7555 40.0429 44.9605 39.9594 45.1983C39.8744 45.4377 39.7369 45.6818 39.5546 45.94C39.3383 46.2498 39.0031 46.5518 38.5364 46.8351C38.1332 47.0792 37.6078 47.2497 36.9558 47.3467L36.9543 48.2042C36.9543 48.7377 36.5279 49.1696 36.001 49.1696C35.4741 49.1696 35.0476 48.7378 35.0476 48.2042L35.0446 47.3483C34.3972 47.2497 33.8734 47.0776 33.4717 46.8351C33.002 46.5487 32.662 46.2499 32.4457 45.94C32.265 45.6819 32.129 45.4362 32.0425 45.1983C31.9544 44.9589 31.9019 44.7586 31.8818 44.5928C31.8617 44.4222 31.8478 44.3127 31.8478 44.2611V43.8433C31.8478 43.5538 31.9513 43.3082 32.1506 43.1032C32.3329 42.917 32.5446 42.8106 32.7918 42.7902C32.8212 42.7886 32.8521 42.7871 32.883 42.7871C33.1688 42.7871 33.4129 42.8888 33.6154 43.0938C33.8224 43.3034 33.9259 43.5538 33.9259 43.8433V44.2532C33.9259 44.3205 33.9584 44.4191 34.0186 44.5505C34.082 44.6866 34.2149 44.8259 34.4234 44.9683C34.5733 45.0716 34.7819 45.1529 35.0476 45.214V41.9234C34.4435 41.7309 33.8765 41.5103 33.3635 41.2365C32.9432 41.0127 32.6311 40.7561 32.4118 40.4948C32.1939 40.2335 32.044 39.9753 31.9668 39.7202C31.8864 39.4589 31.8478 39.2195 31.8478 39.0036V37.9568C31.8478 37.9051 31.854 37.7972 31.8741 37.6329C31.8942 37.4608 31.9467 37.2558 32.0332 37.0195C32.1213 36.7786 32.265 36.536 32.4458 36.2778C32.6621 35.968 32.9973 35.666 33.464 35.3828C33.8672 35.1371 34.3956 34.9681 35.0446 34.8712L35.0461 34.0121C35.0461 33.4801 35.4725 33.0466 35.9994 33.0466ZM27.4012 30.4961V30.4977C25.9226 31.9607 24.5243 33.4519 23.364 34.9885L23.3593 34.9947C21.4697 37.4983 20.1796 40.1709 20.0174 43.3879V43.3894C19.8582 46.5282 20.7513 50.4214 24.4098 52.3429L24.4423 52.3602C27.1399 53.7762 31.1941 54 35.3116 54H36.7068C40.8227 54 44.86 53.7762 47.5579 52.3602L47.5626 52.3586C51.2197 50.4371 52.1421 46.5283 51.9831 43.3895V43.3879C51.8208 40.1708 50.5307 37.4983 48.6411 34.9948L48.6287 34.9776C47.4684 33.441 46.0778 31.9608 44.599 30.4948L27.4012 30.4961Z" fill="#00ED64"/>
</svg>
