<svg width="36" height="36" viewBox="0 0 36 36" fill="none" xmlns="http://www.w3.org/2000/svg">
<rect width="36" height="36" fill="#001E2B"/>
<path d="M25.8311 21.0693C28.13 21.0693 30 22.9394 30 25.2383C29.9997 27.537 28.1298 29.4062 25.8311 29.4062C23.5324 29.4061 21.6633 27.5369 21.6631 25.2383C21.6631 22.9395 23.5323 21.0695 25.8311 21.0693ZM16.2314 6.59375C21.8904 6.59375 26.4629 11.1916 26.4629 16.8252C26.4629 17.9873 26.2609 19.1244 25.9072 20.1602H25.832C23.0026 20.1602 20.7286 22.4334 20.7285 25.2627C20.7285 25.49 20.754 25.7426 20.7793 25.9951C19.3898 26.6772 17.8736 27.0566 16.2314 27.0566C10.5978 27.0566 6.00002 22.4587 6 16.8252C6 11.1917 10.5726 6.59382 16.2314 6.59375ZM27.5742 23.874C27.3974 23.7225 27.1447 23.747 26.9932 23.9238L25.4023 25.8184L24.6191 24.8838C24.4676 24.707 24.2149 24.6824 24.0381 24.834C23.8612 24.9856 23.8357 25.2382 23.9873 25.415L25.0732 26.7031C25.1743 26.8042 25.276 26.8545 25.4023 26.8545C25.5285 26.8544 25.6548 26.8041 25.7305 26.7031L27.625 24.4551C27.7766 24.2782 27.751 24.0256 27.5742 23.874ZM15.5752 10.2061C15.4236 10.2061 15.3223 10.3327 15.3223 10.459V11.7217C13.7812 11.9238 12.5683 13.3394 12.7451 14.9814C12.9222 16.5475 14.3118 17.6846 15.8779 17.6846H16.6865C17.4189 17.6847 17.9994 18.3155 17.9238 19.0479C17.848 19.7047 17.2672 20.1855 16.6104 20.1855H15.499C15.0948 20.1855 14.7408 19.9071 14.665 19.5029C14.6397 19.4019 14.5385 19.3262 14.4375 19.3262H13.1748C13.0232 19.3262 12.8966 19.4529 12.9219 19.6045C13.0484 20.8674 14.0846 21.8529 15.3477 21.9287V23.1914C15.3477 23.3428 15.4734 23.4441 15.5996 23.4443H16.8633C17.0148 23.4443 17.1162 23.3177 17.1162 23.1914V21.9033C18.455 21.6758 19.5661 20.6395 19.6924 19.2754C19.8691 17.5072 18.4548 15.9914 16.7119 15.9912H15.752C15.0193 15.9912 14.4379 15.3342 14.5137 14.6016C14.5644 13.945 15.1705 13.465 15.8271 13.4648H16.9385C17.368 13.4648 17.7221 13.7433 17.7979 14.1475C17.798 14.2484 17.9244 14.3242 18.0254 14.3242H19.2881C19.4397 14.3242 19.541 14.1975 19.541 14.0459C19.4145 12.783 18.379 11.7976 17.0908 11.7217V10.459C17.0908 10.3074 16.9642 10.2061 16.8379 10.2061H15.5752Z" fill="#00ED64"/>
</svg>
