<svg width="72" height="72" viewBox="0 0 72 72" fill="none" xmlns="http://www.w3.org/2000/svg">
<rect width="72" height="72" fill="#001E2B"/>
<path d="M44.3721 45.4146C45.0223 45.4149 45.5479 45.9401 45.5479 46.5904C45.5478 47.2389 45.0223 47.764 44.3721 47.7642H42.3457V49.4615C42.3457 50.3957 41.9744 51.2936 41.3135 51.9547C40.6524 52.6157 39.7546 52.9879 38.8203 52.9879H33.1885C31.2424 52.9878 29.6631 51.4094 29.6631 49.4615V47.7642H27.6377C26.989 47.7642 26.462 47.2391 26.4619 46.5904C26.4619 45.9399 26.989 45.4146 27.6377 45.4146H44.3721ZM28.0098 23.1705C30.3595 20.9529 33.5271 19.8135 36.7529 20.025C39.6207 20.233 42.316 21.4833 44.3291 23.5386C46.3422 25.5919 47.5374 28.3118 47.6855 31.1851C47.6961 31.3543 47.6963 31.5238 47.6963 31.6929C47.7157 35.4614 45.9163 39.0068 42.8633 41.2173C42.5619 41.4341 42.3848 41.7849 42.3936 42.1568V43.0826H29.7021V42.1715C29.7127 41.7995 29.5364 41.4443 29.2314 41.231C26.3758 39.1967 24.5809 35.989 24.3447 32.4898C24.1068 28.9907 25.452 25.5714 28.0098 23.1705ZM22.8369 37.734C23.371 37.3638 24.1024 37.4959 24.4727 38.0298C24.8428 38.5622 24.7108 39.2954 24.1768 39.6656L22.2168 41.025V41.023C22.0229 41.1623 21.7878 41.2367 21.5498 41.2349C21.0371 41.2348 20.5821 40.9017 20.4287 40.4136C20.2753 39.9236 20.4574 39.3907 20.877 39.0963L22.8369 37.734ZM47.5273 38.0298C47.8976 37.4959 48.629 37.3638 49.1631 37.734L51.123 39.0963C51.5426 39.3906 51.7246 39.9236 51.5713 40.4136C51.4179 40.9017 50.963 41.2348 50.4502 41.2349C50.2122 41.2367 49.9771 41.1623 49.7832 41.023L47.8232 39.6646V39.6656C47.2893 39.2954 47.1572 38.5622 47.5273 38.0298ZM36.376 25.525C35.7273 25.525 35.2012 26.052 35.2012 26.7007V27.3404C33.7664 27.7371 32.8459 29.1355 33.0469 30.6109C33.2497 32.0862 34.5105 33.1857 36 33.1822C36.1657 33.1822 36.3243 33.2495 36.4424 33.3658C36.5587 33.4839 36.6259 33.6425 36.626 33.8082V33.8648C36.626 34.2103 36.3455 34.4908 36 34.4908H34.1865C33.5361 34.4908 33.0107 35.0159 33.0107 35.6646C33.0107 36.3151 33.5361 36.8404 34.1865 36.8404H35.2158V37.3482C35.2159 37.9969 35.741 38.524 36.3896 38.524C37.0401 38.524 37.5654 37.9969 37.5654 37.3482V36.4088C38.4574 35.8711 39.0039 34.9066 39.0039 33.8648V33.8082C39.0021 33.0151 38.6849 32.2538 38.1211 31.6968C37.557 31.138 36.7933 30.8255 36 30.8326C35.6545 30.8325 35.374 30.5521 35.374 30.2066C35.3742 29.8613 35.6546 29.5826 36 29.5826H37.8135C38.4639 29.5826 38.9902 29.0555 38.9902 28.4068C38.9901 27.7582 38.4638 27.231 37.8135 27.231H37.5518V26.7007C37.5518 26.0522 37.0262 25.5252 36.376 25.525ZM21.9346 29.9156C22.5849 29.9156 23.1102 30.4411 23.1104 31.0914C23.1104 31.7401 22.585 32.2662 21.9346 32.2662H19.1758C18.5271 32.2662 18 31.7401 18 31.0914C18.0002 30.4411 18.5272 29.9156 19.1758 29.9156H21.9346ZM52.8242 29.9156C53.4728 29.9156 53.9998 30.4411 54 31.0914C54 31.7401 53.4729 32.2662 52.8242 32.2662H50.0654C49.415 32.2662 48.8896 31.7401 48.8896 31.0914C48.8898 30.4411 49.4151 29.9156 50.0654 29.9156H52.8242ZM20.6318 22.0728C20.9898 21.5601 21.6863 21.4161 22.2168 21.7457L24.1768 23.1041C24.598 23.3967 24.7792 23.9293 24.626 24.4175C24.4744 24.9075 24.0219 25.2409 23.5107 25.2427C23.271 25.2445 23.0361 25.1724 22.8369 25.0367L20.877 23.6744C20.3833 23.2901 20.2758 22.5876 20.6318 22.0728ZM49.7832 21.7457C50.3137 21.4161 51.0103 21.5601 51.3682 22.0728C51.7242 22.5875 51.6166 23.2901 51.123 23.6744L49.1631 25.0367C48.9639 25.1724 48.729 25.2445 48.4893 25.2427C47.9782 25.2408 47.5256 24.9075 47.374 24.4175C47.2208 23.9293 47.402 23.3967 47.8232 23.1041L49.7832 21.7457Z" fill="#00ED64"/>
</svg>
