<svg width="24" height="24" viewBox="0 0 24 24" fill="none" xmlns="http://www.w3.org/2000/svg">
<path d="M24 2C23.064 2.5556 21.186 3.3128 20.082 3.5312C20.0496 3.5396 20.0232 3.5504 19.992 3.5588C19.0164 2.5964 17.6796 2 16.2 2C13.218 2 10.8 4.418 10.8 7.4C10.8 7.5572 10.7868 7.8464 10.8 8C6.7764 8 3.714 5.8928 1.518 3.2C1.2792 3.8 1.1748 4.748 1.1748 5.6384C1.1748 7.3196 2.4888 8.9708 4.5348 9.9944C4.158 10.0916 3.7428 10.1612 3.3108 10.1612C2.6136 10.1612 1.8756 9.9776 1.2 9.4208C1.2 9.4412 1.2 9.4604 1.2 9.482C1.2 11.8316 3.6936 13.4312 5.9112 13.8764C5.4612 14.1416 4.554 14.168 4.1112 14.168C3.7992 14.168 2.6952 14.0252 2.4 13.97C3.0168 15.896 5.2416 16.9784 7.362 17.0168C5.7036 18.3176 4.5528 18.8 1.1568 18.8H0C2.1456 20.1752 4.878 21.2012 7.6164 21.2012C16.5324 21.2012 21.6 14.4056 21.6 8C21.6 7.8968 21.5976 7.6808 21.594 7.4636C21.594 7.442 21.6 7.4216 21.6 7.4C21.6 7.3676 21.5904 7.3364 21.5904 7.304C21.5868 7.1408 21.5832 6.9884 21.5796 6.9092C22.5276 6.2252 23.3496 5.372 24 4.4C23.13 4.7864 22.1964 5.0456 21.216 5.1632C22.2168 4.5632 23.6388 3.1328 24 2Z" fill="#00ED64"/>
</svg>
